<svg width="94" height="36" viewBox="0 0 94 36" fill="none" xmlns="http://www.w3.org/2000/svg">
<path d="M4.02668 14L1 4H2.4034L4.98383 12.5347L7.59661 4H9L5.97332 14H4.02668Z" fill="white"/>
<path d="M19 14V4H25V5.36806H20.363V8.17361H24.2174V9.54167H20.363V12.6319H25V14H19Z" fill="white"/>
<path d="M35 14V4H36.4564V12.6319H41V14H35Z" fill="white"/>
<path d="M54.0267 14L51 4H52.4034L54.9838 12.5347L57.5966 4H59L55.9733 14H54.0267Z" fill="white"/>
<path d="M69 14V4H75V5.36806H70.363V8.17361H74.2174V9.54167H70.363V12.6319H75V14H69Z" fill="white"/>
<path d="M88.2836 14V5.36806H85V4H93V5.36806H89.7164V14H88.2836Z" fill="white"/>
<path d="M1 18H93" stroke="white" stroke-linecap="round"/>
<path d="M6.62971 32C5.9052 32 5.2508 31.8821 4.66652 31.6464C4.08691 31.4063 3.6078 31.066 3.22918 30.6258C2.85524 30.181 2.61218 29.654 2.5 29.0447L4.02848 28.8245C4.18273 29.4116 4.50526 29.8697 4.99606 30.1988C5.48685 30.5235 6.05945 30.6858 6.71385 30.6858C7.12051 30.6858 7.49445 30.6258 7.83567 30.5057C8.17689 30.3811 8.45034 30.2055 8.656 29.9787C8.86635 29.7474 8.97152 29.4716 8.97152 29.1514C8.97152 28.978 8.9388 28.8245 8.87336 28.6911C8.81259 28.5577 8.72612 28.4421 8.61393 28.3442C8.50643 28.2419 8.37321 28.1552 8.21429 28.0841C8.06003 28.0085 7.88942 27.944 7.70245 27.8906L5.11525 27.1634C4.86284 27.0923 4.60576 27.0011 4.344 26.8899C4.08224 26.7743 3.84151 26.6253 3.62182 26.443C3.40681 26.2562 3.23152 26.0271 3.09597 25.7558C2.96041 25.4801 2.89264 25.1465 2.89264 24.7552C2.89264 24.1637 3.05156 23.6633 3.36941 23.2542C3.69194 22.8406 4.12664 22.5292 4.67353 22.3202C5.22042 22.1067 5.83275 22 6.51052 22C7.19296 22.0089 7.80295 22.1245 8.34049 22.3469C8.8827 22.5693 9.33143 22.8895 9.68668 23.3075C10.0466 23.7211 10.2943 24.2237 10.4299 24.8152L8.85933 25.0687C8.78922 24.7085 8.63964 24.3994 8.4106 24.1414C8.18157 23.879 7.90111 23.6789 7.56924 23.541C7.23736 23.3987 6.87745 23.3253 6.48948 23.3209C6.11554 23.312 5.77198 23.3654 5.45881 23.481C5.15031 23.5966 4.90257 23.759 4.7156 23.968C4.5333 24.177 4.44216 24.4172 4.44216 24.6885C4.44216 24.9553 4.52396 25.171 4.68755 25.3356C4.85115 25.5001 5.05215 25.6313 5.29053 25.7292C5.5336 25.8225 5.77432 25.9004 6.01271 25.9626L7.87774 26.463C8.11145 26.5252 8.37555 26.6097 8.67003 26.7165C8.96918 26.8188 9.25665 26.9633 9.53243 27.1501C9.81288 27.3369 10.0443 27.5859 10.2266 27.8973C10.4089 28.2041 10.5 28.5911 10.5 29.058C10.5 29.5428 10.3972 29.9698 10.1915 30.3389C9.98583 30.7036 9.70304 31.0105 9.34312 31.2595C8.98788 31.5041 8.57654 31.6887 8.10911 31.8132C7.64169 31.9377 7.14855 32 6.62971 32Z" fill="white"/>
<path d="M16.5 32V22H22.5V23.3681H17.863V26.1736H21.7174V27.5417H17.863V30.6319H22.5V32H16.5Z" fill="white"/>
<path d="M33.1397 32C32.1586 32 31.3229 31.7911 30.6325 31.3733C29.9421 30.9511 29.4129 30.3644 29.045 29.6133C28.6817 28.8622 28.5 27.9911 28.5 27C28.5 26.0089 28.6817 25.1378 29.045 24.3867C29.4129 23.6356 29.9421 23.0511 30.6325 22.6333C31.3229 22.2111 32.1586 22 33.1397 22C34.2706 22 35.2063 22.28 35.9466 22.84C36.6915 23.4 37.2093 24.1533 37.5 25.1L36.0556 25.48C35.8649 24.8089 35.5242 24.2822 35.0337 23.9C34.5477 23.5178 33.9164 23.3267 33.1397 23.3267C32.4447 23.3267 31.8656 23.48 31.4023 23.7867C30.9391 24.0933 30.5893 24.5222 30.3531 25.0733C30.1215 25.6244 30.0057 26.2667 30.0057 27C30.0011 27.7333 30.1147 28.3756 30.3463 28.9267C30.5825 29.4778 30.9322 29.9067 31.3955 30.2133C31.8634 30.52 32.4447 30.6733 33.1397 30.6733C33.9164 30.6733 34.5477 30.4822 35.0337 30.1C35.5242 29.7133 35.8649 29.1867 36.0556 28.52L37.5 28.9C37.2093 29.8467 36.6915 30.6 35.9466 31.16C35.2063 31.72 34.2706 32 33.1397 32Z" fill="white"/>
<path d="M43.5 32V22H47.8071C47.9107 22 48.039 22.0046 48.192 22.0139C48.3449 22.0185 48.4904 22.0324 48.6286 22.0556C49.2206 22.1435 49.714 22.3333 50.1087 22.625C50.5083 22.9167 50.8068 23.2847 51.0042 23.7292C51.2015 24.1736 51.3002 24.6644 51.3002 25.2014C51.3002 25.9977 51.0831 26.6852 50.6489 27.2639C50.2148 27.838 49.5635 28.1968 48.6952 28.3403L48.0661 28.4097H45.0467V32H43.5ZM49.7313 32L47.6295 27.9306L49.191 27.5556L51.5 32H49.7313ZM45.0467 27.0347H47.7479C47.8466 27.0347 47.9551 27.0301 48.0735 27.0208C48.1969 27.0116 48.3128 26.9954 48.4214 26.9722C48.7371 26.9028 48.9912 26.7755 49.1836 26.5903C49.376 26.4005 49.5142 26.1829 49.5981 25.9375C49.6819 25.6921 49.7239 25.4468 49.7239 25.2014C49.7239 24.956 49.6819 24.713 49.5981 24.4722C49.5142 24.2269 49.376 24.0116 49.1836 23.8264C48.9912 23.6366 48.7371 23.5069 48.4214 23.4375C48.3128 23.4097 48.1969 23.3912 48.0735 23.3819C47.9551 23.3727 47.8466 23.3681 47.7479 23.3681H45.0467V27.0347Z" fill="white"/>
<path d="M57.5 32V22H63.5V23.3681H58.863V26.1736H62.7174V27.5417H58.863V30.6319H63.5V32H57.5Z" fill="white"/>
<path d="M72.7836 32V23.3681H69.5V22H77.5V23.3681H74.2164V32H72.7836Z" fill="white"/>
<path d="M87.6297 32C86.9052 32 86.2508 31.8821 85.6665 31.6464C85.0869 31.4063 84.6078 31.066 84.2292 30.6258C83.8552 30.181 83.6122 29.654 83.5 29.0447L85.0285 28.8245C85.1827 29.4116 85.5053 29.8697 85.9961 30.1988C86.4869 30.5235 87.0595 30.6858 87.7138 30.6858C88.1205 30.6858 88.4944 30.6258 88.8357 30.5057C89.1769 30.3811 89.4503 30.2055 89.656 29.9787C89.8663 29.7474 89.9715 29.4716 89.9715 29.1514C89.9715 28.978 89.9388 28.8245 89.8734 28.6911C89.8126 28.5577 89.7261 28.4421 89.6139 28.3442C89.5064 28.2419 89.3732 28.1552 89.2143 28.0841C89.06 28.0085 88.8894 27.944 88.7025 27.8906L86.1152 27.1634C85.8628 27.0923 85.6058 27.0011 85.344 26.8899C85.0822 26.7743 84.8415 26.6253 84.6218 26.443C84.4068 26.2562 84.2315 26.0271 84.096 25.7558C83.9604 25.4801 83.8926 25.1465 83.8926 24.7552C83.8926 24.1637 84.0516 23.6633 84.3694 23.2542C84.6919 22.8406 85.1266 22.5292 85.6735 22.3202C86.2204 22.1067 86.8327 22 87.5105 22C88.193 22.0089 88.8029 22.1245 89.3405 22.3469C89.8827 22.5693 90.3314 22.8895 90.6867 23.3075C91.0466 23.7211 91.2943 24.2237 91.4299 24.8152L89.8593 25.0687C89.7892 24.7085 89.6396 24.3994 89.4106 24.1414C89.1816 23.879 88.9011 23.6789 88.5692 23.541C88.2374 23.3987 87.8774 23.3253 87.4895 23.3209C87.1155 23.312 86.772 23.3654 86.4588 23.481C86.1503 23.5966 85.9026 23.759 85.7156 23.968C85.5333 24.177 85.4422 24.4172 85.4422 24.6885C85.4422 24.9553 85.524 25.171 85.6876 25.3356C85.8512 25.5001 86.0521 25.6313 86.2905 25.7292C86.5336 25.8225 86.7743 25.9004 87.0127 25.9626L88.8777 26.463C89.1115 26.5252 89.3755 26.6097 89.67 26.7165C89.9692 26.8188 90.2566 26.9633 90.5324 27.1501C90.8129 27.3369 91.0443 27.5859 91.2266 27.8973C91.4089 28.2041 91.5 28.5911 91.5 29.058C91.5 29.5428 91.3972 29.9698 91.1915 30.3389C90.9858 30.7036 90.703 31.0105 90.3431 31.2595C89.9879 31.5041 89.5765 31.6887 89.1091 31.8132C88.6417 31.9377 88.1486 32 87.6297 32Z" fill="white"/>
</svg>
