<svg width="131" height="54" viewBox="0 0 131 54" fill="none" xmlns="http://www.w3.org/2000/svg">
<path d="M6.91835 21L2 6H4.28052L8.47373 18.8021L12.7195 6H15L10.0816 21H6.91835Z" fill="white"/>
<path d="M27 21V6H37V8.05208H29.2717V12.2604H35.6957V14.3125H29.2717V18.9479H37V21H27Z" fill="white"/>
<path d="M49 21V6H51.1847V18.9479H58V21H49Z" fill="white"/>
<path d="M74.9184 21L70 6H72.2805L76.4737 18.8021L80.7195 6H83L78.0816 21H74.9184Z" fill="white"/>
<path d="M95 21V6H105V8.05208H97.2717V12.2604H103.696V14.3125H97.2717V18.9479H105V21H95Z" fill="white"/>
<path d="M121.925 21V8.05208H117V6H129V8.05208H124.075V21H121.925Z" fill="white"/>
<path d="M1 27H130" stroke="white" stroke-linecap="round"/>
<path d="M7.19457 48C6.1078 48 5.1262 47.8232 4.24978 47.4696C3.38037 47.1094 2.6617 46.5991 2.09378 45.9386C1.53287 45.2715 1.16827 44.481 1 43.567L3.29273 43.2368C3.5241 44.1174 4.00789 44.8045 4.74408 45.2982C5.48028 45.7852 6.33918 46.0287 7.32077 46.0287C7.93076 46.0287 8.49167 45.9386 9.00351 45.7585C9.51534 45.5717 9.9255 45.3082 10.234 44.968C10.5495 44.6211 10.7073 44.2075 10.7073 43.7272C10.7073 43.467 10.6582 43.2368 10.56 43.0367C10.4689 42.8366 10.3392 42.6631 10.1709 42.5163C10.0096 42.3629 9.80982 42.2328 9.57143 42.1261C9.34005 42.0127 9.08414 41.9159 8.80368 41.8359L4.92287 40.7452C4.54426 40.6384 4.15863 40.5017 3.76599 40.3349C3.37336 40.1614 3.01227 39.938 2.68273 39.6644C2.36021 39.3843 2.09728 39.0407 1.89395 38.6338C1.69062 38.2201 1.58896 37.7198 1.58896 37.1328C1.58896 36.2455 1.82734 35.495 2.30412 34.8813C2.78791 34.2608 3.43996 33.7939 4.2603 33.4803C5.08063 33.1601 5.99912 33 7.01578 33C8.03944 33.0133 8.95443 33.1868 9.76074 33.5203C10.5741 33.8539 11.2472 34.3342 11.78 34.9613C12.3199 35.5817 12.6915 36.3356 12.8948 37.2228L10.539 37.6031C10.4338 37.0627 10.2095 36.5991 9.86591 36.2121C9.52235 35.8185 9.10166 35.5183 8.60386 35.3115C8.10605 35.0981 7.56617 34.988 6.98422 34.9813C6.42331 34.968 5.90798 35.048 5.43821 35.2215C4.97546 35.3949 4.60386 35.6384 4.3234 35.952C4.04996 36.2655 3.91323 36.6258 3.91323 37.0327C3.91323 37.433 4.03593 37.7565 4.28133 38.0033C4.52673 38.2502 4.82822 38.447 5.1858 38.5937C5.55039 38.7338 5.91148 38.8506 6.26906 38.944L9.06661 39.6945C9.41718 39.7879 9.81332 39.9146 10.255 40.0747C10.7038 40.2282 11.135 40.445 11.5486 40.7252C11.9693 41.0053 12.3164 41.3789 12.5898 41.8459C12.8633 42.3062 13 42.8866 13 43.5871C13 44.3142 12.8457 44.9546 12.5372 45.5083C12.2287 46.0554 11.8046 46.5157 11.2647 46.8893C10.7318 47.2562 10.1148 47.533 9.41367 47.7198C8.71253 47.9066 7.97283 48 7.19457 48Z" fill="white"/>
<path d="M21 48V33H31V35.0521H23.2717V39.2604H29.6957V41.3125H23.2717V45.9479H31V48H21Z" fill="white"/>
<path d="M46.2173 48C44.6911 48 43.3911 47.6867 42.3172 47.06C41.2432 46.4267 40.4201 45.5467 39.8478 44.42C39.2826 43.2933 39 41.9867 39 40.5C39 39.0133 39.2826 37.7067 39.8478 36.58C40.4201 35.4533 41.2432 34.5767 42.3172 33.95C43.3911 33.3167 44.6911 33 46.2173 33C47.9765 33 49.432 33.42 50.5836 34.26C51.7424 35.1 52.5478 36.23 53 37.65L50.7532 38.22C50.4565 37.2133 49.9266 36.4233 49.1635 35.85C48.4075 35.2767 47.4254 34.99 46.2173 34.99C45.1363 34.99 44.2354 35.22 43.5148 35.68C42.7941 36.14 42.2501 36.7833 41.8827 37.61C41.5223 38.4367 41.3422 39.4 41.3422 40.5C41.3351 41.6 41.5117 42.5633 41.8721 43.39C42.2395 44.2167 42.7835 44.86 43.5042 45.32C44.2319 45.78 45.1363 46.01 46.2173 46.01C47.4254 46.01 48.4075 45.7233 49.1635 45.15C49.9266 44.57 50.4565 43.78 50.7532 42.78L53 43.35C52.5478 44.77 51.7424 45.9 50.5836 46.74C49.432 47.58 47.9765 48 46.2173 48Z" fill="white"/>
<path d="M61 48V33H66.9223C67.0648 33 67.2411 33.0069 67.4514 33.0208C67.6617 33.0278 67.8619 33.0486 68.0518 33.0833C68.8659 33.2153 69.5443 33.5 70.087 33.9375C70.6364 34.375 71.0469 34.9271 71.3182 35.5937C71.5896 36.2604 71.7253 36.9965 71.7253 37.8021C71.7253 38.9965 71.4268 40.0278 70.8298 40.8958C70.2328 41.7569 69.3373 42.2951 68.1434 42.5104L67.2784 42.6146H63.1267V48H61ZM69.568 48L66.6781 41.8958L68.8252 41.3333L72 48H69.568ZM63.1267 40.5521H66.8409C66.9766 40.5521 67.1258 40.5451 67.2886 40.5312C67.4582 40.5174 67.6176 40.4931 67.7669 40.4583C68.201 40.3542 68.5504 40.1632 68.815 39.8854C69.0796 39.6007 69.2695 39.2743 69.3848 38.9062C69.5002 38.5382 69.5578 38.1701 69.5578 37.8021C69.5578 37.434 69.5002 37.0694 69.3848 36.7083C69.2695 36.3403 69.0796 36.0174 68.815 35.7396C68.5504 35.4549 68.201 35.2604 67.7669 35.1562C67.6176 35.1146 67.4582 35.0868 67.2886 35.0729C67.1258 35.059 66.9766 35.0521 66.8409 35.0521H63.1267V40.5521Z" fill="white"/>
<path d="M80 48V33H90V35.0521H82.2717V39.2604H88.6957V41.3125H82.2717V45.9479H90V48H80Z" fill="white"/>
<path d="M102.925 48V35.0521H98V33H110V35.0521H105.075V48H102.925Z" fill="white"/>
<path d="M124.195 48C123.108 48 122.126 47.8232 121.25 47.4696C120.38 47.1094 119.662 46.5991 119.094 45.9386C118.533 45.2715 118.168 44.481 118 43.567L120.293 43.2368C120.524 44.1174 121.008 44.8045 121.744 45.2982C122.48 45.7852 123.339 46.0287 124.321 46.0287C124.931 46.0287 125.492 45.9386 126.004 45.7585C126.515 45.5717 126.926 45.3082 127.234 44.968C127.55 44.6211 127.707 44.2075 127.707 43.7272C127.707 43.467 127.658 43.2368 127.56 43.0367C127.469 42.8366 127.339 42.6631 127.171 42.5163C127.01 42.3629 126.81 42.2328 126.571 42.1261C126.34 42.0127 126.084 41.9159 125.804 41.8359L121.923 40.7452C121.544 40.6384 121.159 40.5017 120.766 40.3349C120.373 40.1614 120.012 39.938 119.683 39.6644C119.36 39.3843 119.097 39.0407 118.894 38.6338C118.691 38.2201 118.589 37.7198 118.589 37.1328C118.589 36.2455 118.827 35.495 119.304 34.8813C119.788 34.2608 120.44 33.7939 121.26 33.4803C122.081 33.1601 122.999 33 124.016 33C125.039 33.0133 125.954 33.1868 126.761 33.5203C127.574 33.8539 128.247 34.3342 128.78 34.9613C129.32 35.5817 129.691 36.3356 129.895 37.2228L127.539 37.6031C127.434 37.0627 127.209 36.5991 126.866 36.2121C126.522 35.8185 126.102 35.5183 125.604 35.3115C125.106 35.0981 124.566 34.988 123.984 34.9813C123.423 34.968 122.908 35.048 122.438 35.2215C121.975 35.3949 121.604 35.6384 121.323 35.952C121.05 36.2655 120.913 36.6258 120.913 37.0327C120.913 37.433 121.036 37.7565 121.281 38.0033C121.527 38.2502 121.828 38.447 122.186 38.5937C122.55 38.7338 122.911 38.8506 123.269 38.944L126.067 39.6945C126.417 39.7879 126.813 39.9146 127.255 40.0747C127.704 40.2282 128.135 40.445 128.549 40.7252C128.969 41.0053 129.316 41.3789 129.59 41.8459C129.863 42.3062 130 42.8866 130 43.5871C130 44.3142 129.846 44.9546 129.537 45.5083C129.229 46.0554 128.805 46.5157 128.265 46.8893C127.732 47.2562 127.115 47.533 126.414 47.7198C125.713 47.9066 124.973 48 124.195 48Z" fill="white"/>
</svg>
